<?xml version="1.0" encoding="UTF-8" standalone="no"?>
<svg
   xmlns:dc="http://purl.org/dc/elements/1.1/"
   xmlns:cc="http://creativecommons.org/ns#"
   xmlns:rdf="http://www.w3.org/1999/02/22-rdf-syntax-ns#"
   xmlns:svg="http://www.w3.org/2000/svg"
   xmlns="http://www.w3.org/2000/svg"
   xmlns:xlink="http://www.w3.org/1999/xlink"
   xmlns:sodipodi="http://sodipodi.sourceforge.net/DTD/sodipodi-0.dtd"
   xmlns:inkscape="http://www.inkscape.org/namespaces/inkscape"
   version="1.1"
   width="180"
   height="180"
   id="svg41"
   viewBox="0 0 180 180"
   sodipodi:docname="Logo_.svg"
   inkscape:version="0.92.1 r15371">
  <metadata
     id="metadata47">
    <rdf:RDF>
      <cc:Work
         rdf:about="">
        <dc:format>image/svg+xml</dc:format>
        <dc:type
           rdf:resource="http://purl.org/dc/dcmitype/StillImage" />
        <dc:title></dc:title>
      </cc:Work>
    </rdf:RDF>
  </metadata>
  <defs
     id="defs45">
    <radialGradient
       r="59.95489"
       cy="1095.0549"
       cx="1098.3446"
       id="grad1"
       gradientTransform="scale(0.89642816,1.1155384)"
       fx="1098.3446"
       fy="1095.0549"
       gradientUnits="userSpaceOnUse">
      <stop
         id="stop4360"
         stop-opacity="1.0000"
         stop-color="#0062a7"
         offset="0%" />
      <stop
         id="stop4362"
         stop-opacity="1.0000"
         stop-color="#003a6d"
         offset="100%" />
    </radialGradient>
    <linearGradient
       id="grad2">
      <stop
         id="stop4369"
         stop-opacity="1.0000"
         stop-color="#68c9e8"
         offset="0.0000%" />
      <stop
         id="stop4371"
         stop-opacity="1.0000"
         stop-color="#009ee0"
         offset="49.0000%" />
      <stop
         id="stop4373"
         stop-opacity="1.0000"
         stop-color="#007eb4"
         offset="100.0000%" />
    </linearGradient>
    <linearGradient
       gradientUnits="userSpaceOnUse"
       gradientTransform="scale(1.1649386,0.85841432)"
       y2="1470.099"
       x2="775.25939"
       y1="1389.987"
       x1="775.25939"
       id="grad3"
       xlink:href="#grad2" />
    <radialGradient
       r="159.22875"
       cy="2422.3213"
       cx="691.46495"
       id="grad4"
       gradientTransform="scale(1.9679015,0.50815551)"
       fx="691.46495"
       fy="2422.3213"
       gradientUnits="userSpaceOnUse">
      <stop
         id="stop4381"
         stop-opacity="1.0000"
         stop-color="#0062a7"
         offset="0%" />
      <stop
         id="stop4383"
         stop-opacity="1.0000"
         stop-color="#003a6d"
         offset="100%" />
    </radialGradient>
    <linearGradient
       id="grad5">
      <stop
         id="stop4390"
         stop-opacity="1.0000"
         stop-color="#c1c100"
         offset="0.0000%" />
      <stop
         id="stop4392"
         stop-opacity="1.0000"
         stop-color="#e7de00"
         offset="39.0000%" />
      <stop
         id="stop4394"
         stop-opacity="1.0000"
         stop-color="#fff044"
         offset="100.0000%" />
    </linearGradient>
    <linearGradient
       gradientUnits="userSpaceOnUse"
       gradientTransform="scale(1.158714,0.86302571)"
       y2="1498.0171"
       x2="748.13494"
       y1="1380.1965"
       x1="748.13494"
       id="grad6"
       xlink:href="#grad5" />
    <linearGradient
       id="grad1-4">
      <stop
         id="stop4546"
         stop-opacity="1.0000"
         stop-color="#dcdedf"
         offset="0%" />
      <stop
         id="stop4548"
         stop-opacity="1.0000"
         stop-color="#bdbec0"
         offset="100%" />
    </linearGradient>
    <linearGradient
       gradientUnits="userSpaceOnUse"
       gradientTransform="scale(1.1649391,0.85841396)"
       y2="938.03064"
       x2="336.52619"
       y1="797.92085"
       x1="336.52619"
       id="grad2-5"
       xlink:href="#grad1-4" />
    <radialGradient
       r="1"
       cy="0.56999999"
       cx="0.56999999"
       id="grad1-0">
      <stop
         id="stop4575"
         stop-opacity="1.0000"
         stop-color="#ffffff"
         offset="0%" />
      <stop
         id="stop4577"
         stop-opacity="1.0000"
         stop-color="#8f2029"
         offset="100%" />
    </radialGradient>
    <radialGradient
       r="0.81999999"
       cy="0.56999999"
       cx="0.56999999"
       id="grad2-0">
      <stop
         id="stop4584"
         stop-opacity="1.0000"
         stop-color="#ffffff"
         offset="0%" />
      <stop
         id="stop4586"
         stop-opacity="1.0000"
         stop-color="#8f2029"
         offset="100%" />
    </radialGradient>
    <radialGradient
       r="83.354419"
       cy="253.49151"
       cx="86.245512"
       id="grad1-2"
       gradientTransform="scale(1.8438918,0.54233117)"
       fx="86.245512"
       fy="253.49151"
       gradientUnits="userSpaceOnUse">
      <stop
         id="stop4643"
         stop-opacity="1.0000"
         stop-color="#ffffff"
         offset="0%" />
      <stop
         id="stop4645"
         stop-opacity="1.0000"
         stop-color="#8f2029"
         offset="100%" />
    </radialGradient>
    <radialGradient
       r="28.198513"
       cy="141.73084"
       cx="93.597617"
       id="grad2-01"
       gradientTransform="scale(1.0403051,0.96125643)"
       fx="93.597617"
       fy="141.73084"
       gradientUnits="userSpaceOnUse">
      <stop
         id="stop4652"
         stop-opacity="1.0000"
         stop-color="#ffffff"
         offset="0%" />
      <stop
         id="stop4654"
         stop-opacity="1.0000"
         stop-color="#8f2029"
         offset="100%" />
    </radialGradient>
    <linearGradient
       id="grad1-8">
      <stop
         id="stop4755"
         stop-opacity="1.0000"
         stop-color="#c80d20"
         offset="0.0000%" />
      <stop
         id="stop4757"
         stop-opacity="1.0000"
         stop-color="#ffffff"
         offset="12.0000%" />
      <stop
         id="stop4759"
         stop-opacity="1.0000"
         stop-color="#d6d6d6"
         offset="0.0000%" />
    </linearGradient>
    <linearGradient
       gradientUnits="userSpaceOnUse"
       y2="214.37286"
       x2="133.57844"
       y1="176.88853"
       x1="133.57844"
       id="grad2-4"
       xlink:href="#grad1-8"
       gradientTransform="scale(1.3014328,0.7683839)" />
    <linearGradient
       gradientUnits="userSpaceOnUse"
       y2="214.37286"
       x2="133.57844"
       y1="176.88853"
       x1="133.57844"
       id="grad2-08"
       xlink:href="#grad1-8"
       gradientTransform="scale(1.3014328,0.7683839)" />
    <linearGradient
       gradientUnits="userSpaceOnUse"
       y2="214.37286"
       x2="133.57844"
       y1="176.88853"
       x1="133.57844"
       id="grad2-45"
       xlink:href="#grad1-8"
       gradientTransform="scale(1.3014328,0.7683839)" />
  </defs>
  <sodipodi:namedview
     pagecolor="#ffffff"
     bordercolor="#666666"
     borderopacity="1"
     objecttolerance="10"
     gridtolerance="10"
     guidetolerance="10"
     inkscape:pageopacity="0"
     inkscape:pageshadow="2"
     inkscape:window-width="1920"
     inkscape:window-height="1005"
     id="namedview43"
     showgrid="false"
     showguides="true"
     inkscape:guide-bbox="true"
     inkscape:zoom="3.8547424"
     inkscape:cx="-8.7128609"
     inkscape:cy="91.306813"
     inkscape:window-x="-9"
     inkscape:window-y="-9"
     inkscape:window-maximized="1"
     inkscape:current-layer="svg41">
    <sodipodi:guide
       position="-15.77568,89.884689"
       orientation="0,1"
       id="guide3719"
       inkscape:locked="false" />
    <sodipodi:guide
       position="89.884689,218.29139"
       orientation="1,0"
       id="guide3721"
       inkscape:locked="false" />
  </sodipodi:namedview>
  <g
     id="g5158"
     transform="matrix(1.2252718,0,0,1.2252718,-287.88118,-294.25439)">
    <path
       inkscape:connector-curvature="0"
       id="path5120"
       style="fill:#6e6f70;fill-rule:evenodd"
       d="m 326.4896,300.2108 0.005,10e-4 0.4132,0.1185 0.0605,0.4281 c 0.1599,1.1356 0.8513,2.1011 1.8136,2.6375 0.1849,0.1034 0.3832,0.1917 0.5918,0.2622 0.2058,0.0698 0.4205,0.122 0.6409,0.1535 v 4e-4 l 0.008,10e-4 0.5722,0.0802 v 0.5749 36.3219 0.5742 l -0.5722,0.0806 c -1.1354,0.1599 -2.1008,0.8512 -2.6372,1.8142 -0.1031,0.185 -0.1919,0.3832 -0.2624,0.5919 -0.0697,0.206 -0.122,0.4207 -0.1535,0.6412 h -3e-4 l -10e-4,0.008 -0.0598,0.4284 -0.4139,0.118 c -8.4664,2.4175 -17.658,3.0946 -26.5286,2.0321 -1.7297,-0.2072 -3.4446,-0.4799 -5.1342,-0.8173 -1.6922,-0.338 -3.3676,-0.7429 -5.0168,-1.2133 l -0.005,-0.002 -0.4133,-0.118 -0.0604,-0.4284 c -0.16,-1.1358 -0.8518,-2.1016 -1.8144,-2.6383 -0.1849,-0.103 -0.3832,-0.1914 -0.5918,-0.2623 -0.2058,-0.0698 -0.4205,-0.122 -0.6412,-0.1535 v -3e-4 l -0.008,-10e-4 -0.5719,-0.0799 -3e-4,-0.5749 v -36.3219 l 3e-4,-0.5742 0.5719,-0.0809 c 1.1357,-0.16 2.1015,-0.8513 2.6382,-1.8135 0.1032,-0.1854 0.1915,-0.3832 0.2624,-0.5918 0.0698,-0.2058 0.122,-0.4209 0.1535,-0.6413 h 3e-4 l 0.001,-0.008 0.0597,-0.4281 0.414,-0.1185 c 8.4678,-2.4171 17.658,-3.0941 26.5283,-2.0321 1.7297,0.2072 3.4444,0.4803 5.1337,0.8173 1.6925,0.3382 3.3679,0.7429 5.0171,1.2135 z m -0.7489,1.1658 c -1.4872,-0.4137 -2.9986,-0.7744 -4.5269,-1.0796 -1.6639,-0.3321 -3.344,-0.5998 -5.0304,-0.8018 -8.5626,-1.0256 -17.426,-0.3984 -25.6171,1.8811 -0.037,0.1552 -0.081,0.3073 -0.1317,0.4565 -0.095,0.2794 -0.2162,0.5503 -0.3604,0.809 -0.6424,1.1523 -1.7347,2.0204 -3.0397,2.3664 v 35.2426 c 0.1087,0.0285 0.2153,0.0607 0.3209,0.0965 0.2795,0.0949 0.5507,0.2166 0.8094,0.3604 1.1915,0.6648 2.0804,1.8117 2.4007,3.1764 1.4868,0.4137 2.9975,0.773 4.5259,1.0782 1.6635,0.3325 3.3436,0.6001 5.0303,0.8019 8.563,1.0258 17.4286,0.3997 25.619,-1.8801 0.0365,-0.1552 0.0795,-0.3084 0.1303,-0.4577 0.0949,-0.2794 0.2161,-0.5506 0.3604,-0.8093 0.6419,-1.1523 1.7339,-2.0196 3.0386,-2.3656 v -35.2426 c -0.1084,-0.0286 -0.2154,-0.0615 -0.3206,-0.0977 -0.2798,-0.0948 -0.551,-0.216 -0.8091,-0.3603 -1.1915,-0.6641 -2.0789,-1.8096 -2.3996,-3.1743 z" />
    <path
       inkscape:connector-curvature="0"
       id="path5122"
       style="fill:#6e6f70;fill-rule:evenodd"
       d="m 303.7673,338.1016 h 3.3325 v -25.8269 h 7.5159 v 5.376 h 3.3525 l -0.002,-8.7253 H 303.767 Z" />
    <path
       inkscape:connector-curvature="0"
       id="path5124"
       style="fill:#6e6f70;fill-rule:evenodd"
       d="m 309.1967,321.2309 v 16.8707 h 3.3326 v -16.8707 z" />
    <path
       inkscape:connector-curvature="0"
       id="path5126"
       style="fill:#6e6f70;fill-rule:evenodd"
       d="m 316.5215,325.6032 v 9.2546 c 0,2.7875 2.1653,5.1148 4.9203,5.3353 v -3.3675 c -0.9086,-0.2116 -1.5574,-1.0249 -1.5595,-1.9638 l -0.008,-9.2561 c 0,-2.9685 -2.3098,-5.4533 -5.2565,-5.6809 v 3.3597 c 1.1096,0.215 1.9022,1.1926 1.9039,2.3187 z" />
    <path
       inkscape:connector-curvature="0"
       id="path5128"
       style="fill:#6e6f70;fill-rule:evenodd"
       d="m 292.8981,312.2278 0.002,10.6731 h 0.006 v 0.4416 c 7e-4,2.4239 1.9756,4.3805 4.3784,4.3817 v -0.002 h 0.004 c 2.415,0 4.3821,-1.9642 4.3831,-4.3767 -0.004,0 -0.002,-0.4104 -0.002,-0.4454 h 0.008 -3.3491 0.009 v 0.4416 c 0,1.3457 -2.0888,1.3922 -2.0888,-5e-4 v -11.1046 c 0,-2.796 -2.143,-5.1165 -4.9098,-5.3399 v 3.3668 c 0.9101,0.2115 1.557,1.0243 1.5587,1.9642 z" />
    <path
       inkscape:connector-curvature="0"
       id="path5130"
       style="fill:#6e6f70;fill-rule:evenodd"
       d="m 309.1967,322.6626 c 0,3.203 2.1746,6.0462 5.2605,6.8545 v -3.5853 c -0.064,-0.037 -0.8638,-0.5719 -0.8141,-0.6213 -0.9399,-0.9399 -1.1138,-1.904 -1.1138,-3.0899 v -7.7825 h -3.3326 z" />
    <path
       inkscape:connector-curvature="0"
       id="path5132"
       style="fill:#6e6f70;fill-rule:evenodd"
       d="m 323.3959,322.22 v -9.9878 c 0,-0.3901 0.1138,-0.7611 0.3152,-1.0775 0.0415,-0.0652 0.084,-0.1252 0.1267,-0.1785 l 8e-4,10e-4 c 0.0475,-0.0594 0.0955,-0.1142 0.1437,-0.1627 v -0.002 l 0.002,-0.002 c 0.1525,-0.152 0.3289,-0.2815 0.5232,-0.3807 0.0275,-0.0139 0.0669,-0.0317 0.1142,-0.0525 l 0.002,-0.002 c 0.1085,-0.0466 0.2233,-0.0844 0.341,-0.1117 v -3.3675 c -0.9006,0.073 -1.7372,0.3667 -2.454,0.8248 -0.1567,0.1005 -0.3127,0.2132 -0.4655,0.336 -0.1499,0.1202 -0.2931,0.2487 -0.4269,0.3826 l 0.001,6e-4 -0.003,0.002 -0.001,-6e-4 c -0.5378,0.5384 -0.9648,1.1925 -1.236,1.9222 l 10e-4,4e-4 c -0.0552,0.1485 -0.1027,0.2945 -0.1421,0.4365 -0.1256,0.4544 -0.1936,0.9335 -0.194,1.4264 h 0.002 v 0.004 h -0.002 l -3e-4,8.2921 c 0.7997,0.9228 1.3575,1.9989 1.6552,3.1682 v 0.002 c 0.058,0.229 0.1082,0.4727 0.1482,0.7281 0.0401,0.253 0.0685,0.5027 0.0848,0.7472 v 0.002 l 0.002,0.0233 v 0.005 l 0.0187,0.3543 0.002,0.0226 v 1.3647 c 0.2623,-0.346 0.4927,-0.7153 0.6881,-1.1053 0.0663,-0.1332 0.1295,-0.2695 0.1875,-0.4072 0.3592,-0.8485 0.5589,-1.7828 0.5589,-2.7622 h -10e-4 v -0.003 -0.4419 z" />
    <path
       inkscape:connector-curvature="0"
       id="path5134"
       style="fill:#6e6f70;fill-rule:evenodd"
       d="m 298.3293,333.5543 c 0,1.6857 -1.2648,3.1181 -2.9267,3.3367 v 3.3658 c 3.4954,-0.229 6.2758,-3.1811 6.2758,-6.7025 v -24.5659 h -3.3491 z" />
    <path
       inkscape:connector-curvature="0"
       id="path5136"
       style="fill:#b1b3b4;fill-rule:evenodd"
       d="m 301.2865,358.3725 c 0.006,-0.486 0.0322,-0.8424 0.078,-1.0708 0.0397,-0.197 0.0912,-0.3739 0.1517,-0.5299 0.0855,-0.2476 0.1812,-0.4584 0.2842,-0.6348 0.1059,-0.1785 0.2697,-0.3993 0.4876,-0.6644 0.2355,-0.2899 0.4019,-0.5082 0.5007,-0.6524 0.097,-0.146 0.1722,-0.2902 0.224,-0.4344 0.0869,-0.224 0.1295,-0.5271 0.1295,-0.9103 0,-0.4827 -0.0354,-0.8202 -0.1076,-1.0101 -0.072,-0.1915 -0.1959,-0.2889 -0.3711,-0.2889 -0.1607,0 -0.2752,0.0737 -0.3447,0.2209 -0.0575,0.127 -0.0898,0.2532 -0.0958,0.3799 -0.0132,0.137 -0.0252,0.38 -0.0337,0.7247 -0.006,0.1782 -0.009,0.3389 -0.009,0.4788 v 0.1517 h -0.8673 c 0.006,-0.3739 0.019,-0.642 0.0382,-0.8026 0.0208,-0.1621 0.0635,-0.3404 0.1295,-0.5361 0.1679,-0.5289 0.5862,-0.7936 1.2565,-0.7936 0.882,0 1.324,0.58 1.324,1.7419 0,0.268 -0.034,0.4849 -0.1035,0.6527 -0.0808,0.2089 -0.2312,0.4064 -0.4534,0.5904 -0.0662,0.0572 -0.3137,0.2462 -0.7421,0.5656 -0.2387,0.1812 -0.4259,0.3504 -0.5597,0.5079 -0.1356,0.156 -0.2576,0.3521 -0.3667,0.5879 -0.1074,0.2179 -0.1782,0.4566 -0.2122,0.7156 h 2.1356 v -0.5904 h 0.2328 l -0.005,1.6007 z m 3.6606,-3.1622 c 0.009,-0.6963 0.0264,-1.2087 0.0559,-1.5359 0.031,-0.3284 0.0837,-0.6083 0.1545,-0.8408 0.0562,-0.1768 0.1352,-0.3257 0.243,-0.4495 0.1062,-0.1234 0.2354,-0.2179 0.3904,-0.2812 0.1532,-0.0634 0.3253,-0.0942 0.5156,-0.0942 0.4552,0 0.7891,0.1532 1.0013,0.4609 0.1077,0.1621 0.187,0.3447 0.2415,0.5482 0.0547,0.2047 0.093,0.4827 0.1149,0.8348 0.0221,0.3532 0.0325,0.8453 0.0325,1.4785 0,0.6556 -0.0118,1.1298 -0.0369,1.4229 -0.025,0.2945 -0.0736,0.5639 -0.1488,0.8114 -0.1957,0.6156 -0.5951,0.9233 -1.196,0.9233 -0.4107,0 -0.7231,-0.1399 -0.9363,-0.4179 -0.1697,-0.2272 -0.286,-0.5157 -0.3479,-0.8663 -0.0618,-0.3489 -0.0926,-0.8924 -0.0926,-1.6317 0,-0.0445 0.001,-0.106 0.004,-0.1854 0.003,-0.0783 0.005,-0.1371 0.005,-0.1771 z m 0.9279,0.5822 0.0176,1.2635 c 0,0.4977 0.006,0.7893 0.0175,0.8716 0.007,0.0752 0.0368,0.1504 0.0855,0.2255 0.069,0.103 0.1754,0.1546 0.3194,0.1546 0.1475,0 0.2535,-0.0516 0.3197,-0.1546 0.0425,-0.0691 0.0722,-0.1693 0.0869,-0.3005 0.0133,-0.131 0.0208,-0.3754 0.0208,-0.7361 l 0.0175,-1.333 v -1.0531 l -0.009,-1.1472 c 0,-0.4831 -0.007,-0.8116 -0.0217,-0.9836 -0.004,-0.0548 -0.0283,-0.1285 -0.0677,-0.2197 -0.0813,-0.1297 -0.1961,-0.1944 -0.3465,-0.1944 -0.147,0 -0.2562,0.0615 -0.3284,0.1854 -0.0483,0.0783 -0.078,0.1785 -0.0883,0.302 -0.01,0.1237 -0.0147,0.4329 -0.0147,0.9278 l -0.009,1.1297 z m 2.7328,-0.5822 c 0.009,-0.6963 0.0265,-1.2087 0.0558,-1.5359 0.0311,-0.3284 0.0837,-0.6083 0.1546,-0.8408 0.0558,-0.1768 0.1353,-0.3257 0.243,-0.4495 0.1058,-0.1234 0.2354,-0.2179 0.3904,-0.2812 0.153,-0.0634 0.3252,-0.0942 0.5155,-0.0942 0.4549,0 0.789,0.1532 1.0013,0.4609 0.1074,0.1621 0.1871,0.3447 0.2414,0.5482 0.0548,0.2047 0.0932,0.4827 0.115,0.8348 0.0222,0.3532 0.0325,0.8453 0.0325,1.4785 0,0.6556 -0.0118,1.1298 -0.0368,1.4229 -0.025,0.2945 -0.0737,0.5639 -0.1489,0.8114 -0.196,0.6156 -0.5951,0.9233 -1.1958,0.9233 -0.4109,0 -0.7232,-0.1399 -0.9366,-0.4179 -0.1695,-0.2272 -0.2859,-0.5157 -0.3477,-0.8663 -0.0619,-0.3489 -0.093,-0.8924 -0.093,-1.6317 0,-0.0445 0.002,-0.106 0.005,-0.1854 0.003,-0.0783 0.005,-0.1371 0.005,-0.1771 z m 0.9275,0.5822 0.0178,1.2635 c 0,0.4977 0.006,0.7893 0.0175,0.8716 0.007,0.0752 0.037,0.1504 0.0855,0.2255 0.0692,0.103 0.1755,0.1546 0.3197,0.1546 0.1474,0 0.2532,-0.0516 0.3194,-0.1546 0.0427,-0.0691 0.0723,-0.1693 0.087,-0.3005 0.0133,-0.131 0.0208,-0.3754 0.0208,-0.7361 l 0.0175,-1.333 v -1.0531 l -0.009,-1.1472 c 0,-0.4831 -0.007,-0.8116 -0.0222,-0.9836 -0.004,-0.0548 -0.0279,-0.1285 -0.0677,-0.2197 -0.0808,-0.1297 -0.1957,-0.1944 -0.3459,-0.1944 -0.1475,0 -0.2562,0.0615 -0.3285,0.1854 -0.0484,0.0783 -0.078,0.1785 -0.0884,0.302 -0.01,0.1237 -0.0148,0.4329 -0.0148,0.9278 l -0.009,1.1297 z m 3.3324,2.58 c 0.0175,-0.3285 0.0383,-0.5876 0.0602,-0.7791 0.0236,-0.19 0.059,-0.3829 0.1076,-0.5757 0.0502,-0.1919 0.1177,-0.4126 0.2029,-0.6598 0.0665,-0.1915 0.1285,-0.3612 0.1857,-0.5039 0.0577,-0.147 0.1432,-0.3399 0.2577,-0.5786 0.1135,-0.2387 0.2695,-0.5597 0.4684,-0.9661 0.1635,-0.3389 0.3432,-0.7161 0.5392,-1.1298 h -2.0589 v 0.7333 h -0.2282 v -1.7788 h 2.6153 v 0.726 c -0.1797,0.3962 -0.3267,0.7454 -0.4434,1.0456 -0.1158,0.3002 -0.2103,0.5776 -0.2827,0.8276 -0.0723,0.252 -0.1366,0.5272 -0.1943,0.8263 -0.0737,0.374 -0.1295,0.7454 -0.1649,1.1121 -0.0368,0.3664 -0.0738,0.9336 -0.1102,1.7009 z" />
    <path
       inkscape:connector-curvature="0"
       id="path5138"
       style="fill:#b1b3b4;fill-rule:evenodd"
       d="m 292.291,265.0179 -1.1738,5.2018 c -0.1019,0.4521 -0.2135,0.7523 -0.3374,0.901 -0.1238,0.1415 -0.3034,0.2123 -0.5392,0.2123 -0.1811,0 -0.3224,-0.043 -0.4254,-0.1295 -0.1017,-0.087 -0.174,-0.2298 -0.218,-0.432 -0.0429,-0.2042 -0.0647,-0.4841 -0.0647,-0.8423 h 0.2297 c 0.003,0.015 0.004,0.0415 0.007,0.0784 0.003,0.0351 0.007,0.0648 0.0132,0.0913 0.009,0.2003 0.0501,0.3387 0.1248,0.4139 0.0782,0.0748 0.2122,0.1117 0.4024,0.1117 0.2354,0 0.3946,-0.0766 0.4784,-0.2284 0.04,-0.0662 0.0855,-0.2164 0.134,-0.4489 l -1.2738,-4.9293 h -0.4698 v -0.1517 h 1.869 l -0.004,0.1517 h -0.4669 l 0.7336,3.3548 0.7346,-3.3548 h -0.4667 l -0.005,-0.1517 h 1.1868 v 0.1517 z m 0.8713,-0.1517 h 2.0841 c 0.3355,0 0.6036,0.0602 0.8039,0.1792 0.2004,0.1197 0.3464,0.3111 0.4373,0.5729 0.093,0.2639 0.1385,0.6116 0.1385,1.0428 0,0.4169 -0.053,0.7851 -0.1589,1.1047 -0.0955,0.2726 -0.24,0.4727 -0.4358,0.5997 -0.1958,0.1267 -0.4638,0.19 -0.803,0.19 h -0.6727 v 2.5227 h 0.5818 v 0.1517 h -1.9752 v -0.1517 h 0.4655 v -6.0603 h -0.4655 z m 1.3665,3.446 h 0.4154 c 0.2874,-0.009 0.4817,-0.0794 0.5866,-0.2104 0.0425,-0.0662 0.0733,-0.1432 0.094,-0.2297 0.0455,-0.2474 0.0692,-0.6069 0.0692,-1.0783 0,-0.5567 -0.0309,-0.9808 -0.0942,-1.271 -0.0354,-0.1323 -0.0765,-0.2267 -0.1252,-0.2812 -0.0515,-0.0572 -0.1342,-0.0959 -0.2444,-0.1162 -0.1105,-0.0195 -0.286,-0.0298 -0.5242,-0.0298 -0.0193,0 -0.0502,0.002 -0.0902,0.005 -0.0393,0.003 -0.069,0.004 -0.087,0.004 z m 3.1074,2.766 h 0.4696 l -0.002,0.1517 h -1.1917 v -0.1517 h 0.4784 l 1.0825,-6.3078 h 0.6821 l 1.0796,6.3078 h 0.4697 v 0.1517 h -1.9162 v -0.1517 h 0.467 l -0.2855,-1.8543 h -1.0356 z m 0.3372,-2.084 h 0.9438 l -0.4357,-3.1192 z m 6.7902,-4.128 v 0.1517 h -0.4695 v 6.0603 h 0.4695 v 0.147 l -1.8587,0.005 v -0.1517 h 0.4702 v -5.9736 h -0.9929 v 3.8438 c 0,0.6953 -0.0454,1.2653 -0.1384,1.7072 -0.0885,0.4226 -0.3107,0.6344 -0.6642,0.6344 -0.1632,0 -0.2959,-0.0468 -0.3947,-0.1398 -0.1002,-0.0942 -0.1707,-0.243 -0.2166,-0.4491 -0.044,-0.2062 -0.066,-0.4845 -0.066,-0.8364 v -0.255 h 0.2282 v 0.1341 c 0,0.4581 0.1502,0.6863 0.4491,0.6863 0.3772,0 0.5657,-0.4107 0.5657,-1.2327 v -4.1795 h -0.4656 v -0.1517 z m 0.7303,6.3637 v -0.1517 h 0.4652 v -6.0603 h -0.4652 v -0.1517 h 1.8629 v 0.1517 h -0.4699 v 2.5225 h 0.6731 c 0.3327,0.003 0.6041,0.0665 0.8086,0.1889 0.2062,0.122 0.3551,0.3135 0.4496,0.5757 0.0926,0.2609 0.1395,0.6097 0.1395,1.0441 0,0.3739 -0.044,0.729 -0.1339,1.065 -0.1545,0.5432 -0.5699,0.8158 -1.2458,0.8158 z m 1.393,-3.4477 v 3.2048 h 0.3801 c 0.2575,0 0.4243,-0.04 0.4948,-0.121 0.0662,-0.0694 0.1224,-0.1957 0.1696,-0.3799 0.0398,-0.1604 0.0648,-0.296 0.072,-0.4049 0.0118,-0.112 0.019,-0.3167 0.0222,-0.6129 v -0.5304 c 0,-0.4561 -0.0577,-0.7714 -0.1725,-0.9438 -0.0573,-0.087 -0.1499,-0.1428 -0.2766,-0.1693 -0.0652,-0.0162 -0.1829,-0.0307 -0.3536,-0.0426 z m 4.9088,1.1652 h 0.9024 c -0.009,0.4107 -0.0218,0.7096 -0.0411,0.8934 -0.019,0.1844 -0.0545,0.3639 -0.1107,0.5393 -0.0912,0.3137 -0.2515,0.5521 -0.4797,0.7189 -0.2284,0.1645 -0.5156,0.2472 -0.8618,0.2472 -0.6257,0 -1.0469,-0.3049 -1.2638,-0.9146 -0.1542,-0.4287 -0.2326,-1.2505 -0.2326,-2.4637 0,-0.6244 0.0165,-1.0914 0.0472,-1.4023 0.0327,-0.3134 0.0913,-0.6022 0.1769,-0.8674 0.2135,-0.6495 0.6494,-0.9747 1.3078,-0.9747 0.4977,0 0.8541,0.1646 1.0693,0.4959 0.0987,0.1607 0.1764,0.3374 0.2367,0.5304 0.0752,0.2679 0.121,0.6333 0.1342,1.0955 h -0.9028 l -0.009,-0.3105 -0.0162,-0.6508 c -0.009,-0.3565 -0.0515,-0.6099 -0.1295,-0.7601 -0.078,-0.1489 -0.2062,-0.224 -0.3829,-0.224 -0.1678,0 -0.2917,0.0648 -0.3739,0.1943 -0.0813,0.1299 -0.1285,0.3359 -0.1403,0.6219 l -0.0337,0.91 c -0.0178,0.4651 -0.0265,0.9013 -0.0265,1.3075 0,0.006 0.006,0.4391 0.0177,1.2993 0.009,0.3681 0.0175,0.6906 0.0263,0.9705 0,0.2325 0.0265,0.4404 0.0813,0.6214 0.029,0.106 0.0824,0.1901 0.1618,0.2505 0.0794,0.0605 0.1738,0.0894 0.2873,0.0894 0.2327,0 0.3857,-0.1205 0.4609,-0.362 0.0193,-0.0837 0.034,-0.1621 0.0425,-0.2373 0.034,-0.2827 0.052,-0.6845 0.052,-1.2091 v -0.1159 z m 4.4103,-3.9295 h -0.4699 v -0.1517 h 1.2209 v 0.1517 h -0.4712 l -0.8571,2.0483 1.4314,4.012 h 0.4362 v 0.1517 h -1.8676 v -0.1517 h 0.4784 l -0.9703,-3.1196 h -0.2945 v 3.1196 h 0.4962 v 0.1517 h -1.8632 v -0.1517 h 0.4655 v -6.0603 h -0.4655 v -0.1517 h 1.8632 v 0.1517 h -0.4697 v 2.7643 h 0.1942 z m 3.0848,5.555 1.246,-5.7067 h 1.4761 v 0.1517 h -0.4788 v 6.0603 h 0.4788 v 0.1517 h -1.8633 v -0.1517 h 0.4656 v -5.5643 l -1.2417,5.716 h -1.4757 v -0.1517 h 0.4656 v -6.0603 h -0.4656 v -0.1517 h 1.8633 v 0.1517 h -0.4703 z m 4.845,0 1.246,-5.7067 h 1.4757 v 0.1517 h -0.4787 v 6.0603 h 0.4787 v 0.1517 h -1.8632 v -0.1517 h 0.4655 v -5.5643 l -1.2413,5.716 h -1.476 v -0.1517 h 0.4655 v -6.0603 h -0.4655 v -0.1517 h 1.8632 v 0.1517 h -0.4699 z m -0.1857,-7.0764 h 0.1857 c 0.0265,0.1942 0.0587,0.3299 0.0988,0.4051 0.0719,0.1237 0.2638,0.1857 0.5743,0.1857 0.302,0 0.5035,-0.0444 0.6084,-0.1342 0.069,-0.0605 0.1224,-0.2122 0.1589,-0.4566 h 0.1853 v 0.069 c 0,0.3139 -0.0233,0.535 -0.069,0.6645 -0.115,0.2766 -0.4034,0.415 -0.8661,0.415 -0.2254,0 -0.4004,-0.0293 -0.5269,-0.0883 -0.1267,-0.0587 -0.2167,-0.1589 -0.2695,-0.2988 -0.0534,-0.1385 -0.0799,-0.3375 -0.0799,-0.5937 z m -48.6276,11.4449 v 1.6345 h -0.2369 c -0.0146,-0.3327 -0.041,-0.5832 -0.078,-0.7496 -0.0515,-0.2415 -0.1223,-0.4094 -0.2092,-0.5034 -0.0885,-0.096 -0.2195,-0.1432 -0.3947,-0.1432 h -0.7686 v 5.9736 h 0.5832 v 0.1517 h -1.9767 v -0.1517 h 0.4656 v -6.0601 h -0.4656 v -0.1518 z m 0.5229,0 h 2.0839 c 0.3357,0 0.6038,0.0601 0.8041,0.1796 0.2004,0.1192 0.3461,0.3106 0.4373,0.5726 0.093,0.264 0.1385,0.6114 0.1385,1.043 0,0.4165 -0.053,0.7847 -0.1592,1.1046 -0.0957,0.2724 -0.2399,0.4724 -0.4359,0.5994 -0.1957,0.1267 -0.4637,0.19 -0.8026,0.19 h -0.6731 v 2.5227 h 0.5819 v 0.1517 h -1.9749 v -0.1517 h 0.4652 v -6.0601 h -0.4652 z m 1.3665,3.4459 h 0.4151 c 0.2873,-0.008 0.482,-0.0795 0.5865,-0.2104 0.0425,-0.0663 0.0737,-0.1428 0.0942,-0.2298 0.0457,-0.2472 0.0693,-0.6068 0.0693,-1.078 0,-0.5569 -0.0311,-0.9809 -0.0945,-1.271 -0.035,-0.1325 -0.0765,-0.2267 -0.1252,-0.2814 -0.0515,-0.0573 -0.1338,-0.0955 -0.2443,-0.1163 -0.1107,-0.0192 -0.286,-0.0293 -0.5244,-0.0293 -0.0189,0 -0.05,10e-4 -0.0897,0.004 -0.0398,0.003 -0.069,0.004 -0.087,0.004 z m 3.1071,2.766 h 0.4698 l -0.003,0.1517 h -1.1916 v -0.1517 h 0.4787 l 1.0825,-6.3078 h 0.682 l 1.0792,6.3078 h 0.4699 v 0.1517 h -1.9159 v -0.1517 h 0.4667 l -0.2857,-1.8542 h -1.0355 z m 0.3375,-2.0839 h 0.9438 l -0.4357,-3.1193 z m 6.5057,1.9927 h 0.4315 v 1.5977 h -0.2368 l -0.4786,-1.3548 h -2.6067 l -0.4835,1.3548 h -0.2412 v -1.5977 c 0.2545,-0.0179 0.471,-0.1078 0.6464,-0.2713 0.1782,-0.1677 0.3119,-0.4079 0.4007,-0.7213 0.0927,-0.3095 0.1385,-0.6792 0.1385,-1.1078 v -3.8685 h -0.4702 v -0.1518 h 3.3701 v 0.1518 h -0.4702 z m -3.0291,0 h 2.0973 v -5.8824 h -1.2607 v 3.9029 c 0,0.5345 -0.0963,1.0001 -0.289,1.3976 -0.0692,0.1399 -0.1397,0.2506 -0.212,0.3271 -0.0722,0.078 -0.1839,0.1632 -0.3356,0.2548 z m 4.2761,-2.8072 c 0,-0.6817 0.0178,-1.1913 0.0515,-1.5273 0.0383,-0.3402 0.106,-0.6641 0.2075,-0.9722 0.2065,-0.6315 0.6674,-0.9482 1.3802,-0.9482 0.5374,0 0.9203,0.1796 1.1473,0.5392 0.1209,0.1868 0.2135,0.3947 0.2769,0.6212 0.0633,0.2269 0.1088,0.5156 0.1385,0.8631 0.025,0.3446 0.0383,0.7998 0.0383,1.3637 0,0.5951 -0.0133,1.0442 -0.0412,1.3462 -0.0268,0.3017 -0.0798,0.5804 -0.1578,0.8366 -0.2179,0.6935 -0.6964,1.0398 -1.436,1.0398 -0.4919,0 -0.8603,-0.1578 -1.1045,-0.4741 -0.1265,-0.1696 -0.2252,-0.3657 -0.2975,-0.5879 -0.0719,-0.2208 -0.1234,-0.4963 -0.1559,-0.8234 -0.0312,-0.3312 -0.0473,-0.7568 -0.0473,-1.2767 z m 0.9591,-0.1343 0.0175,1.2725 c 0.009,0.5539 0.0265,0.9326 0.0529,1.1343 0.0279,0.2002 0.0798,0.3654 0.1575,0.4917 0.0915,0.1457 0.243,0.2194 0.4522,0.2194 0.1872,0 0.3257,-0.0677 0.414,-0.2029 0.0512,-0.0855 0.0912,-0.174 0.1164,-0.2623 0.0397,-0.1352 0.0675,-0.2856 0.0822,-0.4534 0.0103,-0.1696 0.0208,-0.5009 0.0298,-0.9958 l 0.008,-1.0442 -0.0265,-1.4918 c -0.007,-0.4491 -0.019,-0.76 -0.034,-0.9353 -0.0175,-0.2562 -0.0733,-0.4656 -0.1677,-0.6259 -0.1003,-0.1602 -0.2445,-0.2415 -0.4317,-0.2415 -0.172,0 -0.303,0.0561 -0.3961,0.1681 -0.0543,0.063 -0.0958,0.1499 -0.1248,0.2588 -0.0547,0.1445 -0.087,0.308 -0.0987,0.492 -0.009,0.1607 -0.018,0.4524 -0.0251,0.8748 z m 5.2057,0.9018 h 0.9024 c -0.009,0.4109 -0.0218,0.7096 -0.0412,0.8936 -0.0189,0.1842 -0.0543,0.3639 -0.1106,0.5392 -0.0912,0.3139 -0.2514,0.5521 -0.4798,0.7188 -0.2283,0.1647 -0.5157,0.2474 -0.8617,0.2474 -0.6258,0 -1.047,-0.3049 -1.2635,-0.9147 -0.1545,-0.4287 -0.2329,-1.2506 -0.2329,-2.4636 0,-0.6244 0.0165,-1.0915 0.0472,-1.4024 0.0326,-0.3135 0.0913,-0.6022 0.1768,-0.8674 0.2136,-0.6494 0.6495,-0.9748 1.3079,-0.9748 0.4977,0 0.8541,0.1647 1.0691,0.4961 0.0988,0.1606 0.1769,0.3374 0.2369,0.5302 0.0752,0.268 0.121,0.6334 0.1343,1.0958 h -0.9029 l -0.009,-0.3107 -0.0161,-0.6509 c -0.009,-0.3564 -0.0515,-0.6096 -0.1295,-0.76 -0.0781,-0.1488 -0.2061,-0.224 -0.3829,-0.224 -0.1679,0 -0.2917,0.0647 -0.3739,0.1942 -0.0812,0.13 -0.1285,0.3361 -0.1403,0.6221 l -0.0337,0.9099 c -0.0179,0.4651 -0.0264,0.9013 -0.0264,1.3079 0,0.006 0.006,0.4387 0.0175,1.2988 0.009,0.3684 0.0175,0.6906 0.0265,0.9705 0,0.2327 0.0264,0.4405 0.0812,0.6216 0.0293,0.1058 0.0822,0.19 0.1622,0.2505 0.079,0.0605 0.1735,0.0895 0.2869,0.0895 0.2325,0 0.3857,-0.1207 0.4609,-0.3622 0.0193,-0.0837 0.034,-0.1622 0.0425,-0.2372 0.034,-0.2827 0.052,-0.6846 0.052,-1.2092 v -0.1158 z m 1.4767,-4.081 h 3.2312 v 1.7433 h -0.2372 l -0.009,-0.2147 -0.0733,-0.6527 c -0.025,-0.2577 -0.0722,-0.4301 -0.137,-0.5167 -0.0692,-0.0812 -0.1962,-0.1209 -0.3801,-0.1209 h -0.3195 v 5.9736 H 298.6 v 0.1517 h -1.8719 v -0.1517 h 0.4699 v -5.9736 h -0.3197 c -0.181,0 -0.3049,0.0415 -0.3714,0.1252 -0.0675,0.0812 -0.1192,0.2519 -0.1499,0.5124 l -0.0693,0.6527 -0.009,0.2147 h -0.2283 z m 3.758,0 h 2.0839 c 0.3357,0 0.6037,0.0601 0.8041,0.1796 0.2004,0.1192 0.346,0.3106 0.4372,0.5726 0.0932,0.264 0.1386,0.6114 0.1386,1.043 0,0.4165 -0.0529,0.7847 -0.1589,1.1046 -0.0959,0.2724 -0.2402,0.4724 -0.4359,0.5994 -0.196,0.1267 -0.4641,0.19 -0.8029,0.19 h -0.6731 v 2.5227 h 0.5819 v 0.1517 h -1.9749 v -0.1517 h 0.4655 v -6.0601 h -0.4655 z m 1.3665,3.4459 h 0.4155 c 0.2874,-0.008 0.4816,-0.0795 0.5861,-0.2104 0.0425,-0.0663 0.0737,-0.1428 0.0945,-0.2298 0.0454,-0.2472 0.069,-0.6068 0.069,-1.078 0,-0.5569 -0.0308,-0.9809 -0.094,-1.271 -0.0355,-0.1325 -0.077,-0.2267 -0.1253,-0.2814 -0.0519,-0.0573 -0.1342,-0.0955 -0.2448,-0.1163 -0.1103,-0.0192 -0.2855,-0.0293 -0.5242,-0.0293 -0.019,0 -0.0501,10e-4 -0.0898,0.004 -0.0397,0.003 -0.0692,0.004 -0.087,0.004 z m 2.7582,-0.1324 c 0,-0.6817 0.0178,-1.1913 0.0515,-1.5273 0.0383,-0.3402 0.106,-0.6641 0.2075,-0.9722 0.2062,-0.6315 0.6674,-0.9482 1.3802,-0.9482 0.5375,0 0.9204,0.1796 1.1473,0.5392 0.1209,0.1868 0.2135,0.3947 0.2769,0.6212 0.0633,0.2269 0.1088,0.5156 0.1385,0.8631 0.025,0.3446 0.0383,0.7998 0.0383,1.3637 0,0.5951 -0.0133,1.0442 -0.0412,1.3462 -0.0268,0.3017 -0.0798,0.5804 -0.1578,0.8366 -0.2179,0.6935 -0.6963,1.0398 -1.436,1.0398 -0.4921,0 -0.8603,-0.1578 -1.1045,-0.4741 -0.1264,-0.1696 -0.2252,-0.3657 -0.2974,-0.5879 -0.072,-0.2208 -0.1238,-0.4963 -0.1565,-0.8234 -0.0307,-0.3312 -0.0468,-0.7568 -0.0468,-1.2767 z m 0.9586,-0.1343 0.0175,1.2725 c 0.009,0.5539 0.0268,0.9326 0.0533,1.1343 0.028,0.2002 0.0795,0.3654 0.1575,0.4917 0.0916,0.1457 0.2429,0.2194 0.4523,0.2194 0.1872,0 0.3257,-0.0677 0.414,-0.2029 0.0512,-0.0855 0.0912,-0.174 0.1164,-0.2623 0.0396,-0.1352 0.0675,-0.2856 0.0823,-0.4534 0.0103,-0.1696 0.0207,-0.5009 0.0292,-0.9958 l 0.009,-1.0442 -0.0265,-1.4918 c -0.007,-0.4491 -0.019,-0.76 -0.034,-0.9353 -0.0175,-0.2562 -0.0737,-0.4656 -0.1677,-0.6259 -0.1002,-0.1602 -0.2445,-0.2415 -0.4316,-0.2415 -0.1722,0 -0.3035,0.0561 -0.3962,0.1681 -0.0543,0.063 -0.0958,0.1499 -0.1252,0.2588 -0.0543,0.1445 -0.0866,0.308 -0.0983,0.492 -0.009,0.1607 -0.018,0.4524 -0.0252,0.8748 z m 4.4651,2.5275 1.2459,-5.7067 h 1.4757 v 0.1518 h -0.4784 v 6.0601 h 0.4784 v 0.1517 h -1.8629 v -0.1517 h 0.4653 v -5.5639 l -1.2414,5.7156 h -1.4757 v -0.1517 h 0.4651 v -6.0601 h -0.4651 v -0.1518 h 1.8628 v 0.1518 h -0.4697 z m 3.2484,-5.7067 h 3.2312 v 1.7433 h -0.2373 l -0.009,-0.2147 -0.0737,-0.6527 c -0.0252,-0.2577 -0.072,-0.4301 -0.1372,-0.5167 -0.069,-0.0812 -0.1957,-0.1209 -0.3799,-0.1209 h -0.3195 v 5.9736 h 0.474 v 0.1517 h -1.8717 v -0.1517 h 0.4697 v -5.9736 h -0.3195 c -0.181,0 -0.3049,0.0415 -0.3711,0.1252 -0.0676,0.0812 -0.1191,0.2519 -0.1503,0.5124 l -0.069,0.6527 -0.009,0.2147 h -0.2282 z m 7.0629,6.3636 h -3.3051 v -0.1517 h 0.4656 v -6.0601 h -0.4656 v -0.1518 h 3.2049 v 1.3883 h -0.237 c -0.009,-0.2662 -0.0354,-0.4959 -0.0812,-0.6888 -0.0203,-0.0855 -0.0468,-0.1592 -0.0776,-0.2193 -0.0429,-0.0974 -0.0944,-0.1622 -0.1536,-0.1947 -0.0586,-0.0307 -0.1545,-0.0472 -0.2869,-0.0472 h -0.9751 v 2.6512 h 0.5479 c 0.1177,0 0.2047,-0.0133 0.259,-0.0383 0.0547,-0.0265 0.0974,-0.0724 0.1299,-0.1384 0.0762,-0.121 0.1282,-0.3949 0.1499,-0.8235 h 0.2287 v 2.1738 h -0.2372 c -0.006,-0.215 -0.0222,-0.3885 -0.0519,-0.5213 -0.0337,-0.1604 -0.0838,-0.2709 -0.15,-0.3299 -0.0662,-0.0591 -0.1753,-0.0884 -0.3284,-0.0884 h -0.5479 v 2.9972 h 0.9926 c 0.4344,0 0.6598,-0.4022 0.6773,-1.2076 h 0.2417 z m 4.4782,-6.3636 v 0.1518 h -0.4698 v 6.0601 h 0.4698 v 0.1472 l -1.8585,0.005 v -0.1517 h 0.4697 v -5.9736 h -0.9926 v 3.8438 c 0,0.6953 -0.0454,1.2652 -0.1384,1.7073 -0.0885,0.4225 -0.311,0.6344 -0.6646,0.6344 -0.1631,0 -0.2955,-0.0469 -0.3942,-0.1399 -0.1003,-0.0942 -0.1707,-0.243 -0.217,-0.4492 -0.044,-0.206 -0.0657,-0.4844 -0.0657,-0.8361 v -0.2552 h 0.2279 v 0.1342 c 0,0.458 0.1503,0.6864 0.449,0.6864 0.3776,0 0.5658,-0.4109 0.5658,-1.2328 v -4.1794 h -0.4656 v -0.1518 z m 0.73,6.3636 v -0.1517 h 0.4655 v -6.0601 h -0.4655 v -0.1518 h 1.8632 v 0.1518 h -0.4699 v 2.5225 h 0.6731 c 0.3329,0.003 0.6037,0.0663 0.8084,0.1887 0.2061,0.122 0.3549,0.3135 0.4494,0.5757 0.0927,0.2609 0.1399,0.6098 0.1399,1.0442 0,0.374 -0.0443,0.7289 -0.1342,1.0649 -0.1545,0.5431 -0.5696,0.8158 -1.246,0.8158 z m 1.3933,-3.4476 v 3.2047 h 0.3801 c 0.2577,0 0.424,-0.0401 0.4949,-0.121 0.0662,-0.0693 0.122,-0.1957 0.1693,-0.38 0.0397,-0.1602 0.0647,-0.2959 0.0722,-0.4047 0.0118,-0.1119 0.019,-0.3166 0.0218,-0.613 v -0.5302 c 0,-0.4562 -0.0573,-0.7716 -0.172,-0.9441 -0.0577,-0.0869 -0.1503,-0.1427 -0.277,-0.1692 -0.0647,-0.016 -0.1825,-0.0307 -0.3536,-0.0425 z m 6.3592,3.2959 h 0.4697 v 0.1517 h -1.8632 v -0.1517 h 0.4742 v -3.0884 h -1.2725 v 3.0884 h 0.4702 v 0.1517 h -1.8632 v -0.1517 h 0.4655 v -6.0601 h -0.4655 v -0.1518 h 1.8632 v 0.1518 h -0.4702 v 2.7377 h 1.2725 v -2.7377 h -0.4742 v -0.1518 h 1.8632 v 0.1518 h -0.4697 z m 1.1998,0.1517 v -0.1517 h 0.4651 v -6.0601 h -0.4651 v -0.1518 h 1.8628 v 0.1518 h -0.4698 v 2.5225 h 0.6731 c 0.3327,0.003 0.6039,0.0663 0.8086,0.1887 0.2062,0.122 0.3547,0.3135 0.4491,0.5757 0.0927,0.2624 0.14,0.6098 0.14,1.0442 0,0.374 -0.044,0.7289 -0.1342,1.0649 -0.1542,0.5431 -0.5697,0.8158 -1.2457,0.8158 z m 4.9101,-6.2118 v 6.0601 h 0.4784 v 0.1517 h -1.8642 v -0.1517 h 0.4665 v -6.0601 h -0.4665 v -0.1518 h 1.8642 v 0.1518 z m -3.5171,2.7642 v 3.2047 c 0.1062,0.009 0.2269,0.0132 0.3624,0.0132 0.262,0 0.433,-0.0443 0.5124,-0.1342 0.0663,-0.0676 0.1225,-0.1943 0.1693,-0.3782 0.0401,-0.162 0.0652,-0.2962 0.0724,-0.4065 0.0117,-0.1119 0.0188,-0.3152 0.022,-0.6111 v -0.5321 c 0,-0.4562 -0.0575,-0.7716 -0.1724,-0.9441 -0.0573,-0.0869 -0.15,-0.1427 -0.277,-0.1677 -0.0647,-0.0175 -0.1825,-0.0322 -0.3532,-0.044 z m 6.1188,2.7907 1.2457,-5.7067 h 1.476 v 0.1518 h -0.4787 v 6.0601 h 0.4787 v 0.1517 h -1.8631 v -0.1517 h 0.4654 v -5.5639 l -1.2413,5.7156 h -1.476 v -0.1517 h 0.4655 v -6.0601 h -0.4655 v -0.1518 h 1.8632 v 0.1518 h -0.4699 z m -0.1857,-7.0766 h 0.1857 c 0.0265,0.1944 0.0587,0.33 0.0985,0.4052 0.0722,0.1237 0.2641,0.1857 0.5746,0.1857 0.3021,0 0.5036,-0.0445 0.6084,-0.1342 0.069,-0.0605 0.122,-0.2122 0.1589,-0.4567 h 0.1853 v 0.0692 c 0,0.3137 -0.0233,0.5349 -0.069,0.6644 -0.115,0.2767 -0.4037,0.4152 -0.8661,0.4152 -0.2253,0 -0.4004,-0.0295 -0.5269,-0.0885 -0.1267,-0.0587 -0.2165,-0.1588 -0.2695,-0.2987 -0.0534,-0.1385 -0.0799,-0.3375 -0.0799,-0.5937 z m -47.441,11.5967 h -0.4697 v -0.1517 h 1.2212 v 0.1517 h -0.4716 l -0.8571,2.0482 1.4315,4.0121 h 0.4361 v 0.1517 h -1.8676 v -0.1517 h 0.4785 l -0.9704,-3.1193 h -0.2945 v 3.1193 h 0.4962 v 0.1517 h -1.8628 v -0.1517 h 0.4651 v -6.0603 h -0.4651 v -0.1517 h 1.8628 v 0.1517 h -0.4697 v 2.7643 h 0.1943 z m 1.7391,3.1619 c 0,-0.6818 0.0175,-1.1913 0.0515,-1.5274 0.0383,-0.3402 0.106,-0.6641 0.2077,-0.9721 0.206,-0.6316 0.6672,-0.9483 1.3797,-0.9483 0.5379,0 0.9206,0.1797 1.1476,0.5392 0.1209,0.1869 0.2136,0.3948 0.2769,0.6213 0.0633,0.2268 0.1088,0.5156 0.1385,0.8631 0.025,0.3445 0.0383,0.7996 0.0383,1.3637 0,0.595 -0.0133,1.0444 -0.0415,1.3461 -0.0265,0.3021 -0.0795,0.5803 -0.1575,0.8366 -0.2179,0.6935 -0.6967,1.0399 -1.436,1.0399 -0.4919,0 -0.8601,-0.1579 -1.1046,-0.4741 -0.1267,-0.1697 -0.2251,-0.3657 -0.2974,-0.5879 -0.0722,-0.2209 -0.1237,-0.4964 -0.1562,-0.8231 -0.0309,-0.3317 -0.047,-0.7571 -0.047,-1.277 z m 0.9586,-0.1342 0.0175,1.2723 c 0.009,0.5541 0.0265,0.9325 0.0534,1.1344 0.0279,0.2 0.0795,0.3653 0.1575,0.4917 0.0912,0.146 0.243,0.2193 0.4519,0.2193 0.1872,0 0.3257,-0.0676 0.4144,-0.2028 0.0511,-0.0857 0.0908,-0.174 0.1158,-0.2624 0.0402,-0.1352 0.0677,-0.2855 0.0827,-0.4534 0.01,-0.1695 0.0208,-0.5009 0.0295,-0.9958 l 0.009,-1.0441 -0.0265,-1.4919 c -0.007,-0.449 -0.0193,-0.7599 -0.034,-0.9353 -0.0175,-0.2562 -0.0737,-0.4655 -0.1677,-0.6259 -0.1003,-0.1603 -0.2445,-0.2415 -0.4317,-0.2415 -0.1724,0 -0.3034,0.0562 -0.396,0.1682 -0.0544,0.063 -0.0959,0.15 -0.1252,0.2587 -0.0544,0.1445 -0.087,0.308 -0.0989,0.492 -0.009,0.1607 -0.0175,0.4523 -0.025,0.875 z m 3.7745,-2.5313 v 5.5639 h 0.4694 v 0.1517 h -1.1722 v -0.1517 h 0.4656 v -6.0603 h -0.4656 v -0.1517 h 1.4832 l 0.8026,5.0648 0.9015,-5.0648 h 1.4935 v 0.1517 h -0.4745 v 6.0603 h 0.4745 v 0.1517 h -1.8472 v -0.1517 h 0.4785 v -5.5639 h -0.0176 l -0.9998,5.7156 h -0.5743 l -1.0044,-5.7156 z m 4.7123,5.7156 v -0.1517 h 0.4655 v -6.0603 h -0.4655 v -0.1517 h 2.9939 v 1.3902 h -0.2382 c -0.008,-0.2681 -0.0355,-0.4978 -0.0809,-0.6906 -0.018,-0.0767 -0.043,-0.1504 -0.0785,-0.2194 -0.0428,-0.0973 -0.094,-0.162 -0.153,-0.1947 -0.059,-0.0308 -0.156,-0.0472 -0.2902,-0.0472 h -0.7851 v 2.3757 h 0.293 c 0.3449,0 0.6086,0.0293 0.7926,0.087 0.2888,0.0869 0.5096,0.2797 0.6656,0.5817 0.1517,0.2989 0.2287,0.6893 0.2287,1.169 0,0.6481 -0.112,1.1283 -0.3375,1.4422 -0.224,0.3137 -0.5658,0.4698 -1.0266,0.4698 z m 1.368,-0.2429 h 0.1857 c 0.206,0 0.3624,-0.0147 0.4697,-0.0473 0.106,-0.0312 0.1869,-0.0956 0.2445,-0.1944 0.0544,-0.1002 0.0912,-0.2432 0.1077,-0.4301 0.0175,-0.187 0.0265,-0.4684 0.0265,-0.8451 0,-0.6911 -0.0298,-1.1343 -0.0898,-1.333 -0.0472,-0.1635 -0.131,-0.274 -0.2549,-0.3299 -0.1237,-0.0562 -0.3359,-0.0838 -0.6376,-0.0838 h -0.0518 z m 4.1279,-0.4141 1.246,-5.7067 h 1.4757 v 0.1517 h -0.4788 v 6.0603 h 0.4788 v 0.1517 h -1.8633 v -0.1517 h 0.4656 v -5.5639 l -1.2414,5.7156 h -1.476 v -0.1517 h 0.4656 v -6.0603 h -0.4656 v -0.1517 h 1.8632 v 0.1517 h -0.4698 z m 7.036,0.5053 h 0.4703 v 0.1517 h -1.8633 v -0.1517 h 0.4741 v -3.0886 h -1.2725 v 3.0886 h 0.4699 v 0.1517 h -1.8629 v -0.1517 h 0.4652 v -6.0603 h -0.4652 v -0.1517 h 1.8629 v 0.1517 h -0.4699 v 2.7378 h 1.2725 v -2.7378 h -0.4741 v -0.1517 h 1.8633 v 0.1517 h -0.4703 z m 1.5964,0 h 0.4694 l -0.002,0.1517 h -1.1915 v -0.1517 h 0.4784 l 1.0825,-6.3079 h 0.6819 l 1.0796,6.3079 h 0.4698 v 0.1517 h -1.9161 v -0.1517 h 0.4669 l -0.2855,-1.8543 h -1.0355 z m 0.337,-2.084 h 0.944 l -0.4359,-3.1192 z m 2.9289,-4.128 h 3.2313 v 1.7434 h -0.2374 l -0.009,-0.2147 -0.0738,-0.6528 c -0.025,-0.2575 -0.0722,-0.43 -0.137,-0.5167 -0.069,-0.0812 -0.1957,-0.1209 -0.3801,-0.1209 h -0.3195 v 5.9737 h 0.4742 v 0.1517 H 322.97 v -0.1517 h 0.4699 v -5.9737 h -0.3196 c -0.181,0 -0.3048,0.0415 -0.371,0.1252 -0.0677,0.0812 -0.1195,0.2519 -0.1503,0.5124 l -0.0694,0.6528 -0.009,0.2147 h -0.2283 z" />
  </g>
</svg>
